# xmcd
#
# Track frame offsets:
#	150
#	16628
#	54250
#	69187
#	89100
#	113309
#	149926
#	168206
#	189072
#	211311
#
# Disc length: 2985 seconds
# Revision: 1
# Processed by: cddbd v1.5.2PL0 Copyright (c) Steve Scherf et al.
# Submitted via: dBpowerAMP V12.0
#
DISCID=7a0ba70a
DTITLE=Duke Ellington - The Duke - Magenta Haze CD 2
DYEAR=1999
DGENRE=Jazz
TTITLE0=Take The ''A'' Train
TTITLE1=Melloditti
TTITLE2=Fugueaditti
TTITLE3=Jam-A-Dittiy
TTITLE4=Magenta Haze
TTITLE5=Diminuendo In Blue - Transblucency
TTITLE6=Crescendo In Blue
TTITLE7=Suburbanite
TTITLE8=I'm Just A Lucky So And So
TTITLE9=Riffin' Drill
EXTD=
EXTT0=
EXTT1=
EXTT2=
EXTT3=
EXTT4=
EXTT5=
EXTT6=
EXTT7=
EXTT8=
EXTT9=
PLAYORDER=
